<svg width="59" height="58" viewBox="0 0 59 58" fill="none" xmlns="http://www.w3.org/2000/svg">
<rect x="0.5" width="58" height="58" rx="29" fill="#264086"/>
<rect x="0.817338" y="0.317338" width="57.3653" height="57.3653" rx="28.6827" stroke="black" stroke-opacity="0.1" stroke-width="0.634677"/>
<path d="M22.564 37.74C21.236 37.74 20.036 37.404 18.964 36.732C17.908 36.06 17.076 35.084 16.468 33.804C15.86 32.508 15.556 30.94 15.556 29.1C15.556 27.26 15.86 25.7 16.468 24.42C17.076 23.124 17.908 22.14 18.964 21.468C20.036 20.796 21.236 20.46 22.564 20.46C23.908 20.46 25.108 20.796 26.164 21.468C27.22 22.14 28.052 23.124 28.66 24.42C29.284 25.7 29.596 27.26 29.596 29.1C29.596 30.94 29.284 32.508 28.66 33.804C28.052 35.084 27.22 36.06 26.164 36.732C25.108 37.404 23.908 37.74 22.564 37.74ZM22.564 35.028C23.348 35.028 24.028 34.82 24.604 34.404C25.18 33.972 25.628 33.316 25.948 32.436C26.284 31.556 26.452 30.444 26.452 29.1C26.452 27.74 26.284 26.628 25.948 25.764C25.628 24.884 25.18 24.236 24.604 23.82C24.028 23.388 23.348 23.172 22.564 23.172C21.812 23.172 21.14 23.388 20.548 23.82C19.972 24.236 19.516 24.884 19.18 25.764C18.86 26.628 18.7 27.74 18.7 29.1C18.7 30.444 18.86 31.556 19.18 32.436C19.516 33.316 19.972 33.972 20.548 34.404C21.14 34.82 21.812 35.028 22.564 35.028ZM30.985 37.5V35.412L37.657 29.076C38.217 28.548 38.633 28.084 38.905 27.684C39.177 27.284 39.353 26.916 39.433 26.58C39.529 26.228 39.577 25.9 39.577 25.596C39.577 24.828 39.313 24.236 38.785 23.82C38.257 23.388 37.481 23.172 36.457 23.172C35.641 23.172 34.897 23.316 34.225 23.604C33.569 23.892 33.001 24.332 32.521 24.924L30.337 23.244C30.993 22.364 31.873 21.684 32.977 21.204C34.097 20.708 35.345 20.46 36.721 20.46C37.937 20.46 38.993 20.66 39.889 21.06C40.801 21.444 41.497 21.996 41.977 22.716C42.473 23.436 42.721 24.292 42.721 25.284C42.721 25.828 42.649 26.372 42.505 26.916C42.361 27.444 42.089 28.004 41.689 28.596C41.289 29.188 40.705 29.852 39.937 30.588L34.201 36.036L33.553 34.86H43.369V37.5H30.985Z" fill="white"/>
</svg>
