<svg width="100" height="100" viewBox="0 0 100 100" fill="none" xmlns="http://www.w3.org/2000/svg">
<rect width="100" height="100" rx="50" fill="#264086"/>
<rect x="0.317338" y="0.317338" width="99.3653" height="99.3653" rx="49.6827" stroke="black" stroke-opacity="0.1" stroke-width="0.634677"/>
<path d="M65.1667 45.6667H67.3334C68.53 45.6667 69.5001 46.6367 69.5001 47.8334V69.5C69.5001 70.6967 68.53 71.6667 67.3334 71.6667H32.6667C31.4701 71.6667 30.5001 70.6967 30.5001 69.5V47.8334C30.5001 46.6367 31.4701 45.6667 32.6667 45.6667H34.8334V43.5C34.8334 35.1237 41.6237 28.3334 50.0001 28.3334C58.3764 28.3334 65.1667 35.1237 65.1667 43.5V45.6667ZM60.8334 45.6667V43.5C60.8334 37.517 55.9831 32.6667 50.0001 32.6667C44.017 32.6667 39.1667 37.517 39.1667 43.5V45.6667H60.8334ZM47.8334 54.3334V63H52.1667V54.3334H47.8334Z" fill="white"/>
</svg>
