<svg width="58" height="58" viewBox="0 0 58 58" fill="none" xmlns="http://www.w3.org/2000/svg">
<rect width="58" height="58" rx="29" fill="#264086"/>
<rect x="0.317338" y="0.317338" width="57.3653" height="57.3653" rx="28.6827" stroke="black" stroke-opacity="0.1" stroke-width="0.634677"/>
<path d="M24.564 37.74C23.236 37.74 22.036 37.404 20.964 36.732C19.908 36.06 19.076 35.084 18.468 33.804C17.86 32.508 17.556 30.94 17.556 29.1C17.556 27.26 17.86 25.7 18.468 24.42C19.076 23.124 19.908 22.14 20.964 21.468C22.036 20.796 23.236 20.46 24.564 20.46C25.908 20.46 27.108 20.796 28.164 21.468C29.22 22.14 30.052 23.124 30.66 24.42C31.284 25.7 31.596 27.26 31.596 29.1C31.596 30.94 31.284 32.508 30.66 33.804C30.052 35.084 29.22 36.06 28.164 36.732C27.108 37.404 25.908 37.74 24.564 37.74ZM24.564 35.028C25.348 35.028 26.028 34.82 26.604 34.404C27.18 33.972 27.628 33.316 27.948 32.436C28.284 31.556 28.452 30.444 28.452 29.1C28.452 27.74 28.284 26.628 27.948 25.764C27.628 24.884 27.18 24.236 26.604 23.82C26.028 23.388 25.348 23.172 24.564 23.172C23.812 23.172 23.14 23.388 22.548 23.82C21.972 24.236 21.516 24.884 21.18 25.764C20.86 26.628 20.7 27.74 20.7 29.1C20.7 30.444 20.86 31.556 21.18 32.436C21.516 33.316 21.972 33.972 22.548 34.404C23.14 34.82 23.812 35.028 24.564 35.028ZM35.889 37.5V21.9L37.257 23.316H32.337V20.7H39.009V37.5H35.889Z" fill="white"/>
</svg>
