<svg width="58" height="58" viewBox="0 0 58 58" fill="none" xmlns="http://www.w3.org/2000/svg">
<rect width="58" height="58" rx="29" fill="#264086"/>
<rect x="0.317338" y="0.317338" width="57.3653" height="57.3653" rx="28.6827" stroke="black" stroke-opacity="0.1" stroke-width="0.634677"/>
<path d="M22.064 37.74C20.736 37.74 19.536 37.404 18.464 36.732C17.408 36.06 16.576 35.084 15.968 33.804C15.36 32.508 15.056 30.94 15.056 29.1C15.056 27.26 15.36 25.7 15.968 24.42C16.576 23.124 17.408 22.14 18.464 21.468C19.536 20.796 20.736 20.46 22.064 20.46C23.408 20.46 24.608 20.796 25.664 21.468C26.72 22.14 27.552 23.124 28.16 24.42C28.784 25.7 29.096 27.26 29.096 29.1C29.096 30.94 28.784 32.508 28.16 33.804C27.552 35.084 26.72 36.06 25.664 36.732C24.608 37.404 23.408 37.74 22.064 37.74ZM22.064 35.028C22.848 35.028 23.528 34.82 24.104 34.404C24.68 33.972 25.128 33.316 25.448 32.436C25.784 31.556 25.952 30.444 25.952 29.1C25.952 27.74 25.784 26.628 25.448 25.764C25.128 24.884 24.68 24.236 24.104 23.82C23.528 23.388 22.848 23.172 22.064 23.172C21.312 23.172 20.64 23.388 20.048 23.82C19.472 24.236 19.016 24.884 18.68 25.764C18.36 26.628 18.2 27.74 18.2 29.1C18.2 30.444 18.36 31.556 18.68 32.436C19.016 33.316 19.472 33.972 20.048 34.404C20.64 34.82 21.312 35.028 22.064 35.028ZM35.7701 37.74C34.5861 37.74 33.4261 37.572 32.2901 37.236C31.1701 36.884 30.2261 36.404 29.4581 35.796L30.8021 33.372C31.4101 33.868 32.1461 34.268 33.0101 34.572C33.8741 34.876 34.7781 35.028 35.7221 35.028C36.8421 35.028 37.7141 34.804 38.3381 34.356C38.9621 33.892 39.2741 33.268 39.2741 32.484C39.2741 31.716 38.9861 31.108 38.4101 30.66C37.8341 30.212 36.9061 29.988 35.6261 29.988H34.0901V27.852L38.8901 22.14L39.2981 23.316H30.2741V20.7H41.7221V22.788L36.9221 28.5L35.2901 27.54H36.2261C38.2901 27.54 39.8341 28.004 40.8581 28.932C41.8981 29.844 42.4181 31.02 42.4181 32.46C42.4181 33.404 42.1781 34.276 41.6981 35.076C41.2181 35.876 40.4821 36.524 39.4901 37.02C38.5141 37.5 37.2741 37.74 35.7701 37.74Z" fill="white"/>
</svg>
